# xmcd
#
# Track frame offsets: 
#        150
#        18057
#        30660
#        48819
#        76958
#        89903
#        103600
#        119709
#        131905
#        141850
#        151799
#
# Disc length: 2184 seconds
#
# Revision: 0
# Processed by: cddbd v1.5.1PL0 Copyright (c) Steve Scherf et al.
# Submitted via: ExactAudioCopy v0.90b4
#
DISCID=8c08860b
DTITLE=Kalamazoo - Kalamazoo
DYEAR=1900
DGENRE=Blues
TTITLE0=I Got The Blues
TTITLE1=Me And The Devil
TTITLE2=Hesitation Blues
TTITLE3=Done Changed My Way Of Livin
TTITLE4=Bring Out The Boogie
TTITLE5=Come On In My Kitchen
TTITLE6=Kindhearted Woman
TTITLE7=Can't Be Satisfied
TTITLE8=Waiting Blues
TTITLE9=Black Rat
TTITLE10=Jammed
EXTD=
EXTT0=
EXTT1=
EXTT2=
EXTT3=
EXTT4=
EXTT5=
EXTT6=
EXTT7=
EXTT8=
EXTT9=
EXTT10=
PLAYORDER=
